<svg width="1920" height="1080" viewBox="0 0 1920 1080" fill="none" xmlns="http://www.w3.org/2000/svg">
<rect width="1920" height="1080" fill="white"/>
<path d="M514 512C514 503.716 520.716 497 529 497H542V559C542 567.284 535.284 574 527 574H519C516.239 574 514 571.761 514 569V512Z" fill="#335CFF"/>
<path d="M542 525L542 497L624 497C626.761 497 629 499.239 629 502L629 525L542 525Z" fill="#335CFF"/>
<path d="M519 623C516.239 623 514 620.761 514 618L514 610C514 601.716 520.716 595 529 595L591 595L591 608C591 616.284 584.284 623 576 623L519 623Z" fill="#335CFF"/>
<path d="M563 574L563 561C563 552.716 569.716 546 578 546L629 546L629 559C629 567.284 622.284 574 614 574L563 574Z" fill="#335CFF"/>
<path d="M629 546L601 546L601 524L629 524L629 546Z" fill="#335CFF"/>
<rect x="591" y="595" width="28" height="21" transform="rotate(180 591 595)" fill="#335CFF"/>
<path d="M514 462.524C514 460.411 515.328 458.526 517.318 457.815L535.318 451.386C538.575 450.223 542 452.637 542 456.095V482C542 484.761 539.761 487 537 487H519C516.239 487 514 484.761 514 482V462.524Z" fill="#335CFF"/>
<path d="M555 525C544.5 525 542 529 542 537.5H537V519.5H554L555 525Z" fill="#335CFF"/>
<path d="M550 595C560.5 595 563 591 563 582.5H568V600.5H551L550 595Z" fill="#335CFF"/>
<path d="M1404.78 577.913C1403.48 583.296 1401.43 588.127 1398.62 592.405C1395.84 596.683 1392.47 600.324 1388.51 603.328C1384.54 606.303 1380.05 608.583 1375.03 610.17C1370.02 611.757 1364.61 612.55 1358.8 612.55C1354.04 612.55 1349.55 612.012 1345.33 610.935C1341.1 609.858 1337.21 608.314 1333.64 606.303C1330.1 604.263 1326.91 601.798 1324.08 598.908C1321.27 595.989 1318.88 592.703 1316.89 589.048C1314.94 585.364 1313.44 581.341 1312.39 576.978C1311.34 572.614 1310.82 567.982 1310.82 563.08C1310.82 558.178 1311.33 553.56 1312.35 549.225C1313.39 544.862 1314.88 540.853 1316.81 537.198C1318.76 533.543 1321.13 530.27 1323.91 527.38C1326.71 524.462 1329.87 521.997 1333.38 519.985C1336.92 517.973 1340.78 516.429 1344.94 515.353C1349.14 514.276 1353.58 513.738 1358.29 513.738C1362.99 513.738 1367.41 514.276 1371.55 515.353C1375.68 516.401 1379.5 517.931 1382.98 519.943C1386.47 521.926 1389.58 524.363 1392.33 527.253C1395.08 530.143 1397.4 533.415 1399.3 537.07C1401.23 540.725 1402.69 544.734 1403.68 549.098C1404.7 553.433 1405.21 558.065 1405.21 562.995C1405.21 567.017 1401.78 570.05 1397.76 570.05H1338.91C1339.28 573.167 1340.01 575.943 1341.12 578.38C1342.22 580.817 1343.65 582.885 1345.41 584.585C1347.17 586.257 1349.24 587.546 1351.62 588.453C1354.02 589.331 1356.7 589.77 1359.65 589.77C1364.01 589.77 1367.65 588.793 1370.57 586.838C1373.52 584.854 1375.83 581.879 1377.5 577.913H1404.78ZM1377.41 553.9C1375.37 541.972 1369.05 536.008 1358.46 536.008C1353.05 536.008 1348.7 537.538 1345.41 540.598C1342.12 543.658 1340.03 548.092 1339.12 553.9H1377.41Z" fill="#0D132D"/>
<path d="M1288.42 516.288C1296.58 516.288 1303.21 522.909 1303.21 531.078V599.63C1303.21 606.6 1302.12 612.876 1299.93 618.458C1297.75 624.039 1294.62 628.771 1290.54 632.653C1286.46 636.563 1281.49 639.552 1275.62 641.62C1269.79 643.717 1263.2 644.765 1255.86 644.765C1248.83 644.765 1242.45 643.844 1236.69 642.003C1230.94 640.161 1226.01 637.554 1221.9 634.183C1217.82 630.839 1214.66 626.816 1212.43 622.113C1210.19 617.409 1209.07 612.182 1209.07 606.43H1238.52C1238.52 608.923 1238.92 611.162 1239.71 613.145C1240.5 615.128 1241.64 616.814 1243.11 618.203C1244.58 619.591 1246.34 620.653 1248.38 621.39C1250.45 622.155 1252.76 622.538 1255.31 622.538C1258.2 622.538 1260.78 622.028 1263.04 621.008C1265.34 619.988 1267.27 618.514 1268.82 616.588C1270.38 614.661 1271.57 612.295 1272.39 609.49C1273.22 606.657 1273.63 603.441 1273.63 599.843V575.873C1272.66 580.491 1271.29 584.585 1269.5 588.155C1267.75 591.697 1265.59 594.686 1263.04 597.123C1260.52 599.531 1257.62 601.358 1254.33 602.605C1251.07 603.852 1247.46 604.475 1243.49 604.475C1238.08 604.475 1233.12 603.356 1228.62 601.118C1224.11 598.879 1220.23 595.748 1216.97 591.725C1213.74 587.673 1211.22 582.828 1209.41 577.19C1207.62 571.552 1206.73 565.347 1206.73 558.575C1206.73 551.775 1207.62 545.627 1209.41 540.13C1211.22 534.605 1213.74 529.888 1216.97 525.978C1220.23 522.068 1224.11 519.05 1228.62 516.925C1233.12 514.8 1238.08 513.738 1243.49 513.738C1251.46 513.738 1257.99 516.061 1263.09 520.708C1268.19 525.326 1271.7 532.211 1273.63 541.363V531.078C1273.63 522.909 1280.25 516.288 1288.42 516.288ZM1273.63 558.575C1273.63 551.945 1272.01 547.029 1268.78 543.828C1265.58 540.626 1260.92 539.025 1254.8 539.025C1251.8 539.025 1249.16 539.408 1246.89 540.173C1244.63 540.938 1242.73 542.113 1241.2 543.7C1239.67 545.287 1238.51 547.313 1237.71 549.778C1236.95 552.243 1236.57 555.175 1236.57 558.575C1236.57 565.403 1238.1 570.546 1241.16 574.003C1244.22 577.431 1248.76 579.145 1254.8 579.145C1260.95 579.145 1265.62 577.388 1268.82 573.875C1272.03 570.333 1273.63 565.233 1273.63 558.575Z" fill="#0D132D"/>
<path d="M1121.6 551.478C1113.47 551.478 1106.44 544.618 1109.49 537.078C1109.67 536.631 1109.86 536.189 1110.06 535.753C1112.21 531.078 1115.29 527.111 1119.28 523.853C1123.28 520.594 1128.12 518.101 1133.82 516.373C1139.54 514.616 1145.97 513.738 1153.11 513.738C1160.39 513.738 1166.88 514.658 1172.58 516.5C1178.27 518.313 1183.09 520.963 1187.03 524.448C1190.97 527.904 1193.97 532.154 1196.04 537.198C1198.11 542.241 1199.14 547.978 1199.14 554.41V610H1169.56V586.625C1168.57 590.62 1167.02 594.218 1164.93 597.42C1162.86 600.622 1160.32 603.342 1157.32 605.58C1154.35 607.818 1150.96 609.533 1147.16 610.723C1143.39 611.941 1139.31 612.55 1134.92 612.55C1130.3 612.55 1126.1 611.884 1122.3 610.553C1118.53 609.249 1115.29 607.408 1112.57 605.028C1109.88 602.619 1107.79 599.743 1106.32 596.4C1104.85 593.028 1104.11 589.288 1104.11 585.18C1104.11 580.675 1105 576.652 1106.79 573.11C1108.6 569.54 1111.22 566.537 1114.65 564.1C1118.11 561.663 1122.31 559.808 1127.27 558.533C1132.26 557.229 1137.91 556.578 1144.23 556.578H1169.56V554.41C1169.56 551.492 1169.18 548.899 1168.41 546.633C1167.68 544.338 1166.57 542.411 1165.1 540.853C1163.65 539.266 1161.87 538.062 1159.74 537.24C1157.62 536.418 1155.17 536.008 1152.39 536.008C1149.64 536.008 1147.25 536.362 1145.21 537.07C1143.2 537.778 1141.52 538.798 1140.19 540.13C1138.89 541.433 1137.91 543.048 1137.26 544.975C1136.12 548.437 1133.37 551.478 1129.73 551.478H1121.6ZM1148.27 572.558C1143.51 572.558 1139.91 573.351 1137.47 574.938C1135.04 576.524 1133.82 578.862 1133.82 581.95C1133.82 585.038 1135.02 587.433 1137.43 589.133C1139.84 590.804 1143.25 591.64 1147.67 591.64C1150.79 591.64 1153.68 591.229 1156.34 590.408C1159.01 589.558 1161.32 588.41 1163.27 586.965C1165.23 585.52 1166.76 583.806 1167.86 581.823C1168.99 579.839 1169.56 577.7 1169.56 575.405V572.558H1148.27Z" fill="#0D132D"/>
<path d="M1051.32 513.738C1058.46 513.738 1064.84 514.503 1070.45 516.033C1076.06 517.563 1080.79 519.773 1084.64 522.663C1088.52 525.553 1091.49 529.066 1093.53 533.203C1097.06 540.376 1090.1 547.228 1082.1 547.228H1078C1072.09 547.228 1067.9 541.496 1063.44 537.623C1060.89 535.356 1057.1 534.223 1052.09 534.223C1049.96 534.223 1048.02 534.435 1046.27 534.86C1044.51 535.257 1042.99 535.838 1041.72 536.603C1040.44 537.339 1039.45 538.246 1038.74 539.323C1038.06 540.371 1037.72 541.533 1037.72 542.808C1037.72 544.451 1038.19 545.811 1039.13 546.888C1040.06 547.936 1041.35 548.814 1042.99 549.523C1044.64 550.203 1046.55 550.769 1048.73 551.223C1050.94 551.676 1053.32 552.129 1055.87 552.583L1062.12 553.688C1064.58 554.113 1067.2 554.608 1069.98 555.175C1072.79 555.742 1075.56 556.478 1078.31 557.385C1081.06 558.263 1083.68 559.383 1086.17 560.743C1088.69 562.074 1090.9 563.732 1092.8 565.715C1094.73 567.698 1096.26 570.064 1097.39 572.813C1098.55 575.561 1099.14 578.791 1099.14 582.503C1099.14 587.263 1098.13 591.513 1096.12 595.253C1094.11 598.964 1091.16 602.109 1087.28 604.688C1083.42 607.238 1078.68 609.178 1073.04 610.51C1067.43 611.87 1061 612.55 1053.75 612.55C1046.1 612.55 1039.34 611.799 1033.47 610.298C1027.64 608.796 1022.73 606.6 1018.77 603.71C1014.8 600.792 1011.8 597.208 1009.76 592.958C1009.7 592.834 1009.64 592.71 1009.58 592.585C1006.23 585.227 1013.3 578.338 1021.38 578.338H1024.71C1030.96 578.338 1035.44 584.46 1040.32 588.368C1043.21 590.663 1047.6 591.81 1053.49 591.81C1056.01 591.81 1058.28 591.612 1060.29 591.215C1062.3 590.79 1064.02 590.195 1065.43 589.43C1066.85 588.665 1067.94 587.73 1068.71 586.625C1069.47 585.52 1069.85 584.273 1069.85 582.885C1069.85 581.157 1069.4 579.754 1068.49 578.678C1067.61 577.573 1066.34 576.652 1064.67 575.915C1063.02 575.178 1061.01 574.569 1058.63 574.088C1056.25 573.578 1053.56 573.053 1050.56 572.515L1044.31 571.41C1042.04 571.013 1039.58 570.546 1036.92 570.008C1034.28 569.469 1031.63 568.761 1028.97 567.883C1026.33 567.004 1023.77 565.913 1021.28 564.61C1018.81 563.307 1016.63 561.692 1014.73 559.765C1012.83 557.81 1011.32 555.487 1010.18 552.795C1009.05 550.103 1008.48 546.958 1008.48 543.36C1008.48 538.742 1009.46 534.605 1011.42 530.95C1013.37 527.295 1016.18 524.193 1019.83 521.643C1023.51 519.093 1028 517.138 1033.3 515.778C1038.6 514.418 1044.61 513.738 1051.32 513.738Z" fill="#0D132D"/>
<path d="M970.302 531.078C970.302 522.909 976.923 516.288 985.092 516.288C993.26 516.288 999.882 522.909 999.882 531.078V610H970.302V581.313C968.46 591.626 964.848 599.418 959.464 604.688C954.081 609.929 947.026 612.55 938.299 612.55C928.496 612.55 921.101 609.136 916.114 602.308C911.156 595.451 908.677 585.265 908.677 571.75V531.078C908.677 522.909 915.298 516.288 923.467 516.288C931.635 516.288 938.257 522.909 938.257 531.078V565.375C938.257 572.657 939.518 578.097 942.039 581.695C944.589 585.293 948.428 587.093 953.557 587.093C958.997 587.093 963.148 585.208 966.009 581.44C968.871 577.643 970.302 572.062 970.302 564.695V531.078Z" fill="#0D132D"/>
<path d="M806.784 539.408H804.969C799.446 539.408 794.969 534.93 794.969 529.408V526.288C794.969 520.765 799.446 516.288 804.969 516.288H806.784V513.398C806.784 507.759 807.592 502.787 809.207 498.48C810.85 494.145 813.258 490.518 816.432 487.6C819.633 484.653 823.572 482.429 828.247 480.928C832.95 479.426 838.348 478.675 844.439 478.675C847.131 478.675 849.964 478.817 852.939 479.1C858.178 479.599 861.949 484.167 861.949 489.429V496.088C861.949 499.357 859.002 501.815 855.744 501.54C853.761 501.342 851.905 501.243 850.177 501.243C844.963 501.243 841.124 502.263 838.659 504.303C836.223 506.343 835.004 509.516 835.004 513.823V516.288H851.992C857.515 516.288 861.992 520.765 861.992 526.288V529.408C861.992 534.93 857.515 539.408 851.992 539.408H836.364V610H806.784V539.408ZM899.562 610H869.982V498.99C869.982 490.822 876.603 484.2 884.772 484.2C892.94 484.2 899.562 490.822 899.562 498.99V610Z" fill="#0D132D"/>
<path d="M728.34 610H698.76V531.078C698.76 522.909 705.381 516.288 713.55 516.288C721.718 516.288 728.34 522.909 728.34 531.078V544.975C730.181 534.662 733.794 526.884 739.177 521.643C744.561 516.373 751.616 513.738 760.342 513.738C770.174 513.738 777.569 517.166 782.527 524.023C787.486 530.851 789.965 541.023 789.965 554.538V610H760.385V560.913C760.385 553.603 759.124 548.163 756.602 544.593C754.081 540.994 750.241 539.195 745.085 539.195C739.645 539.195 735.494 541.093 732.632 544.89C729.771 548.658 728.34 554.226 728.34 561.593V610Z" fill="#0D132D"/>
<path d="M658 531.5C658 522.94 664.94 516 673.5 516C682.06 516 689 522.94 689 531.5V610H658V531.5Z" fill="#0D132D"/>
<path d="M715.764 454.48C717.168 450.596 713.404 446.832 709.521 448.24L662.054 465.406C658.158 466.817 657.686 472.134 661.271 474.21L676.423 482.982L689.952 469.452C690.565 468.86 691.386 468.533 692.238 468.54C693.09 468.548 693.906 468.889 694.508 469.492C695.111 470.094 695.453 470.91 695.46 471.762C695.467 472.614 695.14 473.435 694.548 474.048L681.018 487.578L689.793 502.729C691.867 506.314 697.184 505.839 698.594 501.946L715.764 454.48Z" fill="#335CFF"/>
</svg>
