<svg width="892" height="198" viewBox="0 0 892 198" fill="none" xmlns="http://www.w3.org/2000/svg">
<path d="M1.79217e-06 64.9999C1.79217e-06 56.7157 6.71573 49.9999 15 49.9999H28V112C28 120.284 21.2843 127 13 127H5C2.23858 127 1.79217e-06 124.761 1.79217e-06 122V64.9999Z" fill="#335CFF"/>
<path d="M28 77.9999V49.9999H110C112.761 49.9999 115 52.2385 115 54.9999V77.9999H28Z" fill="#335CFF"/>
<path d="M5 176C2.23858 176 4.70397e-07 173.761 3.49691e-07 171L0 163C-3.62117e-07 154.716 6.71573 148 15 148H77V161C77 169.284 70.2843 176 62 176H5Z" fill="#335CFF"/>
<path d="M49 127V114C49 105.716 55.7157 98.9999 64 98.9999H115V112C115 120.284 108.284 127 100 127H49Z" fill="#335CFF"/>
<path d="M115 98.9999H87V76.9999H115V98.9999Z" fill="#335CFF"/>
<path d="M77 148H49L49 127H77V148Z" fill="#335CFF"/>
<path d="M1.79217e-06 15.5235C1.79217e-06 13.4105 1.32835 11.5255 3.31832 10.8148L21.3183 4.38625C24.5745 3.22331 28 5.6373 28 9.09496V34.9999C28 37.7614 25.7614 39.9999 23 39.9999H5C2.23858 39.9999 1.79217e-06 37.7614 1.79217e-06 34.9999V15.5235Z" fill="#335CFF"/>
<path d="M41 77.9999C30.5 77.9999 28 81.9999 28 90.4999H23V72.4999H40L41 77.9999Z" fill="#335CFF"/>
<path d="M36 148C46.5 148 49 144 49 135.5H54V153.5H37L36 148Z" fill="#335CFF"/>
<path d="M890.783 130.912C889.48 136.296 887.426 141.127 884.621 145.405C881.844 149.683 878.472 153.324 874.506 156.327C870.539 159.302 866.048 161.583 861.033 163.17C856.018 164.757 850.606 165.55 844.798 165.55C840.038 165.55 835.547 165.012 831.326 163.935C827.104 162.858 823.208 161.314 819.638 159.302C816.097 157.262 812.909 154.797 810.076 151.907C807.271 148.989 804.877 145.702 802.893 142.047C800.938 138.364 799.437 134.341 798.388 129.977C797.34 125.614 796.816 120.982 796.816 116.08C796.816 111.178 797.326 106.56 798.346 102.225C799.394 97.8616 800.881 93.8525 802.808 90.1975C804.763 86.5425 807.129 83.27 809.906 80.38C812.711 77.4616 815.87 74.9966 819.383 72.985C822.925 70.9733 826.778 69.4291 830.943 68.3525C835.137 67.2758 839.585 66.7375 844.288 66.7375C848.991 66.7375 853.411 67.2758 857.548 68.3525C861.685 69.4008 865.496 70.9308 868.981 72.9425C872.466 74.9258 875.582 77.3625 878.331 80.2525C881.079 83.1425 883.402 86.415 885.301 90.07C887.227 93.725 888.686 97.7341 889.678 102.097C890.698 106.432 891.208 111.065 891.208 115.995C891.208 120.017 887.778 123.05 883.757 123.05H824.908C825.276 126.167 826.013 128.943 827.118 131.38C828.223 133.817 829.654 135.885 831.411 137.585C833.167 139.257 835.236 140.546 837.616 141.452C840.024 142.331 842.701 142.77 845.648 142.77C850.011 142.77 853.652 141.792 856.571 139.837C859.517 137.854 861.827 134.879 863.498 130.912H890.783ZM863.413 106.9C861.373 94.9717 855.055 89.0075 844.458 89.0075C839.046 89.0075 834.697 90.5375 831.411 93.5975C828.124 96.6575 826.027 101.092 825.121 106.9H863.413Z" fill="#0D132D"/>
<path d="M774.417 69.2875C782.585 69.2875 789.207 75.9092 789.207 84.0775V152.63C789.207 159.6 788.116 165.876 785.934 171.457C783.753 177.039 780.622 181.771 776.542 185.652C772.462 189.562 767.489 192.552 761.624 194.62C755.788 196.717 749.2 197.765 741.862 197.765C734.835 197.765 728.446 196.844 722.694 195.002C716.943 193.161 712.013 190.554 707.904 187.182C703.824 183.839 700.665 179.816 698.427 175.112C696.188 170.409 695.069 165.182 695.069 159.43H724.522C724.522 161.923 724.918 164.162 725.712 166.145C726.505 168.128 727.638 169.814 729.112 171.202C730.585 172.591 732.342 173.653 734.382 174.39C736.45 175.155 738.759 175.537 741.309 175.537C744.199 175.537 746.778 175.027 749.044 174.007C751.339 172.987 753.266 171.514 754.824 169.587C756.383 167.661 757.573 165.295 758.394 162.49C759.216 159.657 759.627 156.441 759.627 152.842V128.872C758.663 133.491 757.289 137.585 755.504 141.155C753.748 144.697 751.594 147.686 749.044 150.122C746.523 152.531 743.618 154.358 740.332 155.605C737.073 156.852 733.461 157.475 729.494 157.475C724.083 157.475 719.124 156.356 714.619 154.117C710.114 151.879 706.233 148.748 702.974 144.725C699.744 140.673 697.223 135.828 695.409 130.19C693.624 124.552 692.732 118.347 692.732 111.575C692.732 104.775 693.624 98.6266 695.409 93.13C697.223 87.605 699.744 82.8875 702.974 78.9775C706.233 75.0675 710.114 72.05 714.619 69.925C719.124 67.8 724.083 66.7375 729.494 66.7375C737.456 66.7375 743.987 69.0608 749.087 73.7075C754.187 78.3258 757.7 85.2108 759.627 94.3625V84.0775C759.627 75.9092 766.248 69.2875 774.417 69.2875ZM759.627 111.575C759.627 104.945 758.012 100.029 754.782 96.8275C751.58 93.6258 746.919 92.025 740.799 92.025C737.796 92.025 735.161 92.4075 732.894 93.1725C730.628 93.9375 728.729 95.1133 727.199 96.7C725.669 98.2866 724.508 100.312 723.714 102.777C722.949 105.242 722.567 108.175 722.567 111.575C722.567 118.403 724.097 123.546 727.157 127.002C730.217 130.431 734.764 132.145 740.799 132.145C746.948 132.145 751.623 130.388 754.824 126.875C758.026 123.333 759.627 118.233 759.627 111.575Z" fill="#0D132D"/>
<path d="M607.599 104.477C599.466 104.477 592.439 97.6176 595.489 90.0783C595.67 89.6311 595.86 89.1892 596.06 88.7525C598.213 84.0775 601.288 80.1108 605.283 76.8525C609.278 73.5941 614.123 71.1008 619.818 69.3725C625.541 67.6158 631.973 66.7375 639.113 66.7375C646.394 66.7375 652.883 67.6583 658.578 69.5C664.273 71.3133 669.089 73.9625 673.028 77.4475C676.966 80.9041 679.969 85.1541 682.038 90.1975C684.106 95.2408 685.14 100.978 685.14 107.41V163H655.56V139.625C654.568 143.62 653.024 147.218 650.928 150.42C648.859 153.622 646.323 156.342 643.32 158.58C640.345 160.818 636.959 162.532 633.163 163.722C629.394 164.941 625.314 165.55 620.923 165.55C616.304 165.55 612.097 164.884 608.3 163.552C604.532 162.249 601.288 160.407 598.568 158.027C595.876 155.619 593.793 152.743 592.32 149.4C590.847 146.028 590.11 142.288 590.11 138.18C590.11 133.675 591.003 129.652 592.788 126.11C594.601 122.54 597.222 119.537 600.65 117.1C604.107 114.663 608.314 112.807 613.273 111.532C618.259 110.229 623.912 109.577 630.23 109.577H655.56V107.41C655.56 104.492 655.178 101.899 654.413 99.6325C653.676 97.3375 652.571 95.4108 651.098 93.8525C649.653 92.2658 647.868 91.0616 645.743 90.24C643.618 89.4183 641.167 89.0075 638.39 89.0075C635.642 89.0075 633.248 89.3616 631.208 90.07C629.196 90.7783 627.524 91.7983 626.193 93.13C624.889 94.4333 623.912 96.0483 623.26 97.975C622.124 101.437 619.372 104.477 615.728 104.477H607.599ZM634.268 125.557C629.508 125.557 625.909 126.351 623.473 127.937C621.036 129.524 619.818 131.862 619.818 134.95C619.818 138.038 621.022 140.432 623.43 142.132C625.838 143.804 629.253 144.64 633.673 144.64C636.789 144.64 639.679 144.229 642.343 143.407C645.006 142.557 647.315 141.41 649.27 139.965C651.225 138.52 652.755 136.806 653.86 134.822C654.993 132.839 655.56 130.7 655.56 128.405V125.557H634.268Z" fill="#0D132D"/>
<path d="M537.323 66.7375C544.463 66.7375 550.838 67.5025 556.448 69.0325C562.058 70.5625 566.789 72.7725 570.643 75.6625C574.524 78.5525 577.485 82.0658 579.525 86.2025C583.063 93.3764 576.101 100.227 568.102 100.227H564C558.092 100.227 553.896 94.4955 549.435 90.6225C546.885 88.3558 543.103 87.2225 538.088 87.2225C535.963 87.2225 534.022 87.435 532.265 87.86C530.508 88.2566 528.993 88.8375 527.718 89.6025C526.443 90.3391 525.451 91.2458 524.742 92.3225C524.062 93.3708 523.723 94.5325 523.723 95.8075C523.723 97.4508 524.19 98.8108 525.125 99.8875C526.06 100.936 527.349 101.814 528.992 102.522C530.636 103.202 532.548 103.769 534.73 104.222C536.94 104.676 539.32 105.129 541.87 105.582L548.117 106.687C550.582 107.112 553.203 107.608 555.98 108.175C558.785 108.742 561.562 109.478 564.31 110.385C567.058 111.263 569.679 112.382 572.172 113.742C574.694 115.074 576.904 116.732 578.802 118.715C580.729 120.698 582.259 123.064 583.393 125.812C584.554 128.561 585.135 131.791 585.135 135.502C585.135 140.262 584.129 144.512 582.117 148.252C580.106 151.964 577.159 155.109 573.278 157.687C569.424 160.237 564.678 162.178 559.04 163.51C553.43 164.87 546.998 165.55 539.745 165.55C532.095 165.55 525.338 164.799 519.473 163.297C513.636 161.796 508.734 159.6 504.767 156.71C500.801 153.792 497.797 150.207 495.757 145.957C495.699 145.834 495.641 145.71 495.585 145.585C492.232 138.227 499.295 131.337 507.381 131.337H510.713C516.959 131.337 521.442 137.46 526.315 141.367C529.205 143.662 533.597 144.81 539.49 144.81C542.012 144.81 544.278 144.612 546.29 144.215C548.302 143.79 550.016 143.195 551.432 142.43C552.849 141.665 553.94 140.73 554.705 139.625C555.47 138.52 555.853 137.273 555.853 135.885C555.853 134.157 555.399 132.754 554.492 131.677C553.614 130.572 552.339 129.652 550.667 128.915C549.024 128.178 547.013 127.569 544.633 127.087C542.253 126.577 539.561 126.053 536.557 125.515L530.31 124.41C528.043 124.013 525.578 123.546 522.915 123.007C520.28 122.469 517.631 121.761 514.968 120.882C512.333 120.004 509.768 118.913 507.275 117.61C504.81 116.307 502.628 114.692 500.73 112.765C498.832 110.81 497.316 108.487 496.182 105.795C495.049 103.103 494.482 99.9583 494.482 96.36C494.482 91.7416 495.46 87.605 497.415 83.95C499.37 80.295 502.175 77.1925 505.83 74.6425C509.513 72.0925 514.004 70.1375 519.302 68.7775C524.601 67.4175 530.608 66.7375 537.323 66.7375Z" fill="#0D132D"/>
<path d="M456.302 84.0775C456.302 75.9092 462.923 69.2875 471.092 69.2875C479.26 69.2875 485.882 75.9092 485.882 84.0775V163H456.302V134.312C454.46 144.626 450.847 152.417 445.464 157.687C440.081 162.929 433.026 165.55 424.299 165.55C414.496 165.55 407.101 162.136 402.114 155.307C397.156 148.451 394.677 138.265 394.677 124.75V84.0775C394.677 75.9092 401.298 69.2875 409.467 69.2875C417.635 69.2875 424.257 75.9092 424.257 84.0775V118.375C424.257 125.657 425.517 131.097 428.039 134.695C430.589 138.293 434.428 140.092 439.557 140.092C444.997 140.092 449.147 138.208 452.009 134.44C454.871 130.643 456.302 125.062 456.302 117.695V84.0775Z" fill="#0D132D"/>
<path d="M292.784 92.4075H290.969C285.446 92.4075 280.969 87.9303 280.969 82.4075V79.2875C280.969 73.7646 285.446 69.2875 290.969 69.2875H292.784V66.3975C292.784 60.7591 293.592 55.7866 295.207 51.48C296.85 47.145 299.258 43.5183 302.432 40.6C305.633 37.6533 309.572 35.4291 314.247 33.9275C318.95 32.4258 324.347 31.675 330.439 31.675C333.131 31.675 335.964 31.8166 338.939 32.1C344.178 32.5989 347.949 37.1665 347.949 42.4289V49.0882C347.949 52.3571 345.001 54.8153 341.744 54.54C339.761 54.3416 337.905 54.2425 336.177 54.2425C330.963 54.2425 327.124 55.2625 324.659 57.3025C322.222 59.3425 321.004 62.5158 321.004 66.8225V69.2875H337.992C343.514 69.2875 347.992 73.7646 347.992 79.2875V82.4075C347.992 87.9303 343.514 92.4075 337.992 92.4075H322.364V163H292.784V92.4075ZM385.562 163H355.982V51.99C355.982 43.8217 362.603 37.2 370.772 37.2C378.94 37.2 385.562 43.8217 385.562 51.99V163Z" fill="#0D132D"/>
<path d="M214.34 163H184.76V84.0775C184.76 75.9092 191.381 69.2875 199.55 69.2875C207.718 69.2875 214.34 75.9092 214.34 84.0775V97.975C216.181 87.6617 219.794 79.8842 225.177 74.6425C230.561 69.3725 237.616 66.7375 246.342 66.7375C256.174 66.7375 263.569 70.1658 268.527 77.0225C273.486 83.8508 275.965 94.0225 275.965 107.537V163H246.385V113.912C246.385 106.602 245.124 101.162 242.602 97.5925C240.081 93.9941 236.241 92.195 231.085 92.195C225.645 92.195 221.494 94.0933 218.632 97.89C215.771 101.658 214.34 107.226 214.34 114.592V163Z" fill="#0D132D"/>
<path d="M144 84.4999C144 75.9395 150.94 68.9999 159.5 68.9999C168.06 68.9999 175 75.9395 175 84.4999V163H144V84.4999Z" fill="#0D132D"/>
<path d="M201.764 7.47943C203.168 3.59568 199.404 -0.167823 195.521 1.23943L148.054 18.4059C144.158 19.8164 143.686 25.1334 147.271 27.2102L162.423 35.9819L175.952 22.4522C176.565 21.8602 177.386 21.5326 178.238 21.54C179.091 21.5474 179.906 21.8892 180.508 22.4918C181.111 23.0943 181.453 23.9095 181.46 24.7616C181.467 25.6138 181.14 26.4347 180.548 27.0477L167.018 40.5774L175.793 55.7289C177.867 59.3137 183.184 58.8392 184.594 54.9457L201.764 7.47943Z" fill="#335CFF"/>
</svg>
